<?xml version="1.0" encoding="UTF-8"?>
<svg id="Livello_1" data-name="Livello 1" xmlns="http://www.w3.org/2000/svg" viewBox="0 0 100.79 51.93">
  <defs>
    <style>
      .cls-1 {
        fill: #010101;
      }
    </style>
  </defs>
  <path class="cls-1" d="M.65,38.53q.19.03.38.03c2.34,0,4.68.04,7.02-.01,3.3-.07,6.08-1.35,8.34-3.75.34-.36.66-.76.98-1.14C26.33,22.85,35.29,12.04,44.26,1.23,45.43-.19,45,.01,46.88,0c6.02,0,12.04,0,18.06,0,.45,0,.9.01,1.31.02.23.44-.07.62-.24.83-1.51,1.84-3.04,3.67-4.56,5.51-10.51,12.68-21.02,25.35-31.53,38.03-.37.45-.74.91-1.13,1.34-3.55,4-8,6.1-13.35,6.17-4.72.06-9.45.02-14.17.01-.37,0-.73-.04-1.12-.07-.23-.49-.15-.95-.15-1.4,0-3.34,0-6.69,0-10.03,0-.41,0-.82,0-1.2"/>
  <path class="cls-1" d="M35.1,38.53q.19.03.38.03c2.34,0,4.68.04,7.02-.01,3.3-.07,6.08-1.35,8.34-3.75.34-.36.66-.76.98-1.14,8.96-10.81,17.93-21.62,26.89-32.43,1.18-1.42.74-1.22,2.62-1.22,6.02,0,12.04,0,18.06,0,.45,0,.9.01,1.31.02.23.44-.07.62-.24.83-1.51,1.84-3.04,3.67-4.56,5.51-10.51,12.68-21.02,25.35-31.53,38.03-.37.45-.74.91-1.13,1.34-3.55,4-8,6.1-13.35,6.17-4.72.06-9.45.02-14.17.01-.37,0-.73-.04-1.12-.07-.23-.49-.15-.95-.15-1.4,0-3.34,0-6.69,0-10.03,0-.41,0-.82,0-1.2"/>
</svg>